# 3ds Max Wavefront OBJ Exporter v0.97b - (c)2007 guruware
# File Created: 02.01.2019 18:26:59

mtllib Foliage_Grass_Clump.mtl

#
# object Foliage_Grass_Clump_LOD0
#

v  -8.488246 0.363101 -13.730620
v  7.481539 0.161311 3.569612
v  -20.879436 30.114395 -10.884786
v  8.898133 25.277409 18.905806
v  -9.302704 56.129986 16.510904
v  -22.517651 56.264732 2.195023
v  12.286297 -0.226131 -0.190127
v  -13.048739 -0.226131 -0.190127
v  -25.618423 28.917418 -0.016749
v  -8.958394 62.689487 0.189489
v  21.429546 33.163429 0.008512
v  9.558731 62.689487 0.189489
v  -4.108435 0.211157 -4.965779
v  0.446573 28.131372 -15.601914
v  11.658038 0.268193 14.670267
v  26.318766 26.120232 17.845818
v  26.694237 56.293121 0.154596
v  14.728047 56.258217 -14.748431
v  5.098410 0.340941 -8.545871
v  -5.275839 0.112115 13.800676
v  -18.885546 25.375158 20.578148
v  -24.275829 56.169804 4.118398
v  -1.978777 28.636518 -18.416788
v  -16.150143 56.314411 -13.384636
v  1.657599 -0.267893 7.985752
v  8.885354 -0.300692 -10.886786
v  19.770523 20.798246 -16.731497
v  8.083847 22.613024 15.669609
v  25.392864 46.163368 -3.345058
v  19.663464 46.184349 11.615044
# 30 vertices

vn 0.689292 0.353038 -0.632646
vn 0.689357 0.352968 -0.632614
vn 0.689309 0.352975 -0.632662
vn 0.689338 0.352871 -0.632688
vn -0.000954 0.006843 -0.999976
vn -0.000954 0.006866 -0.999976
vn 0.731583 -0.346754 -0.586983
vn 0.731572 -0.346757 -0.586994
vn 0.731559 -0.346721 -0.587031
vn 0.731657 -0.346755 -0.586889
vn 0.731639 -0.346746 -0.586917
vn 0.731572 -0.346760 -0.586993
vn -0.846579 -0.355263 -0.396348
vn -0.846623 -0.355153 -0.396352
vn -0.846522 -0.355166 -0.396557
vn -0.846640 -0.355135 -0.396332
vn -0.869988 0.362988 -0.333708
vn -0.869955 0.363078 -0.333696
vn -0.869965 0.363058 -0.333691
vn -0.869960 0.362976 -0.333793
vn -0.869928 0.363153 -0.333685
# 21 vertex normals

vt 0.714355 0.002930 0.000000
vt 0.192017 0.002930 0.000000
vt 0.836426 0.474609 0.000000
vt 0.003052 0.451660 0.000000
vt 0.281494 0.971817 0.000000
vt 0.628418 0.971817 0.000000
vt 0.714355 0.002930 0.000000
vt 0.836426 0.474609 0.000000
vt 0.192017 0.002930 0.000000
vt 0.002773 0.451660 0.000000
vt 0.281494 0.971863 0.000000
vt 0.628418 0.971863 0.000000
vt 0.714355 0.002930 0.000000
vt 0.192017 0.002930 0.000000
vt 0.836426 0.474609 0.000000
vt 0.003059 0.451660 0.000000
vt 0.281494 0.971817 0.000000
vt 0.628418 0.971817 0.000000
vt 0.714355 0.002930 0.000000
vt 0.836426 0.474609 0.000000
vt 0.192017 0.002930 0.000000
vt 0.003082 0.451660 0.000000
vt 0.281494 0.971817 0.000000
vt 0.628418 0.971817 0.000000
vt 0.714355 0.002930 0.000000
vt 0.192017 0.002930 0.000000
vt 0.836426 0.474609 0.000000
vt 0.003023 0.451660 0.000000
vt 0.281494 0.971817 0.000000
vt 0.628418 0.971817 0.000000
# 30 texture coords

g Foliage_Grass_Clump_LOD0
usemtl MAT_Grass_Clump
s 1
f 3/3/1 2/2/2 1/1/3 
f 3/3/1 4/4/1 2/2/2 
f 3/3/1 5/5/4 4/4/1 
f 6/6/4 5/5/4 3/3/1 
f 8/9/5 11/8/6 7/7/5 
f 9/10/6 11/8/6 8/9/5 
f 10/11/6 11/8/6 9/10/6 
f 12/12/6 11/8/6 10/11/6 
f 14/15/7 15/14/8 13/13/9 
f 14/15/7 16/16/10 15/14/8 
f 14/15/7 17/17/11 16/16/10 
f 18/18/12 17/17/11 14/15/7 
f 20/21/13 23/20/14 19/19/13 
f 21/22/15 23/20/14 20/21/13 
f 22/23/16 23/20/14 21/22/15 
f 24/24/16 23/20/14 22/23/16 
f 28/27/17 26/26/18 25/25/19 
f 28/27/17 27/28/20 26/26/18 
f 28/27/17 29/29/21 27/28/20 
f 30/30/21 29/29/21 28/27/17 
# 20 faces

#
# object Foliage_Grass_Clump_LOD1
#

v  17.534157 57.161751 -11.253621
v  27.706610 30.036356 17.287657
v  17.164074 0.288114 21.527651
v  -12.126771 0.182149 -14.952058
v  10.628170 0.462912 -20.457193
v  -17.340082 57.188583 -10.821462
v  -9.070759 0.028409 21.975084
v  -23.275778 36.712975 19.953285
v  4.408434 63.584827 0.189489
v  -26.422188 37.647442 0.035186
v  -22.935204 -0.226131 -0.190127
v  26.095974 -0.226131 -0.190127
# 12 vertices

vn 0.732557 -0.343296 -0.587800
vn 0.732517 -0.343305 -0.587844
vn 0.732597 -0.343316 -0.587737
vn 0.732567 -0.343260 -0.587808
vn -0.847646 -0.350979 -0.397882
vn -0.847619 -0.350949 -0.397965
vn -0.847646 -0.350978 -0.397882
vn -0.847651 -0.350963 -0.397885
vn 0.000954 0.006843 -0.999976
vn 0.000954 0.006866 -0.999976
vn 0.001001 0.006866 -0.999976
# 11 vertex normals

vt 0.543945 0.991638 0.000000
vt 0.991211 0.002930 0.000000
vt 0.007023 0.519531 0.000000
vt 0.007023 0.002930 0.000000
vt 0.991211 0.002930 0.000000
vt 0.562012 0.991638 0.000000
vt 0.007080 0.002930 0.000000
vt 0.007030 0.640381 0.000000
vt 0.544922 0.991676 0.000000
vt 0.006737 0.589844 0.000000
vt 0.991699 0.002930 0.000000
vt 0.006744 0.002930 0.000000
# 12 texture coords

g Foliage_Grass_Clump_LOD1
usemtl MAT_Grass_Clump
s 1
f 32/33/22 34/32/23 31/31/24 
f 34/32/23 32/33/22 33/34/25 
f 37/37/26 36/36/27 35/35/28 
f 38/38/29 36/36/27 37/37/26 
f 42/41/30 40/40/31 39/39/32 
f 40/40/31 42/41/30 41/42/30 
# 6 faces

